<?xml version="1.0" standalone="no"?>
<!DOCTYPE svg PUBLIC "-//W3C//DTD SVG 20010904//EN"
 "http://www.w3.org/TR/2001/REC-SVG-20010904/DTD/svg10.dtd">
<svg version="1.0" xmlns="http://www.w3.org/2000/svg"
 width="1597.000000pt" height="683.000000pt" viewBox="0 0 1597.000000 683.000000"
 preserveAspectRatio="xMidYMid meet">

<g transform="translate(0.000000,683.000000) scale(0.100000,-0.100000)"
fill="#000000" stroke="none">
<path d="M18 6798 c-11 -19 -13 -661 -13 -3368 0 -1840 3 -3357 8 -3372 6 -22
15 -28 55 -35 63 -11 15669 -10 15795 0 l97 9 0 3394 0 3394 -7965 0 -7964 0
-13 -22z m15004 -739 c232 -49 347 -250 277 -484 -42 -141 -148 -267 -276
-328 -64 -30 -74 -32 -183 -32 -105 0 -119 2 -165 27 -65 34 -130 99 -163 163
-35 68 -42 198 -17 291 33 122 138 245 268 315 109 58 163 68 259 48z m-12648
-44 c195 -34 483 -151 613 -250 66 -49 163 -151 163 -171 0 -13 -137 -197
-243 -324 -91 -110 -148 -170 -163 -170 -6 0 -49 34 -95 76 -195 176 -324 225
-504 190 -207 -41 -377 -187 -435 -374 -35 -113 -24 -177 45 -271 66 -89 148
-144 450 -300 149 -76 299 -156 335 -176 131 -76 293 -270 360 -431 80 -193
54 -596 -59 -902 -206 -558 -665 -923 -1207 -961 -132 -9 -348 1 -429 20 -212
50 -476 236 -600 423 -72 110 -155 268 -155 296 0 25 -1 24 270 261 211 185
246 213 259 205 6 -4 37 -62 69 -129 93 -193 175 -286 316 -360 61 -32 62 -32
211 -32 l150 0 75 39 c113 60 215 166 274 287 25 52 53 121 61 154 22 86 19
209 -6 291 -19 60 -30 77 -93 139 -81 80 -158 126 -366 220 -446 201 -663 396
-735 660 -22 82 -31 347 -15 456 15 109 59 236 130 384 76 159 141 253 242
352 193 191 366 300 562 355 195 56 366 70 520 43z m2417 -1389 c465 -107 702
-461 704 -1046 0 -151 -3 -189 -24 -277 l-24 -103 -186 -1 c-472 -2 -1378 -17
-1393 -24 -27 -11 -32 -68 -20 -230 12 -174 34 -241 104 -312 72 -73 216 -122
326 -109 119 14 216 72 375 225 l108 103 72 -7 c92 -8 445 -71 480 -84 15 -6
30 -18 33 -26 17 -42 -155 -286 -288 -410 -249 -232 -582 -365 -911 -365 -113
0 -298 25 -383 51 -145 45 -308 142 -396 237 -90 96 -193 281 -238 427 -48
157 -46 518 4 735 79 338 185 564 375 792 176 212 385 340 692 423 90 24 103
25 309 21 143 -3 237 -10 281 -20z m5455 13 c358 -50 632 -334 742 -768 25
-98 27 -121 27 -311 -1 -175 -4 -220 -23 -310 -113 -521 -426 -971 -807 -1162
-221 -111 -460 -151 -679 -113 -150 26 -221 62 -368 186 -45 38 -85 69 -90 69
-17 0 -28 -53 -53 -257 -15 -115 -48 -356 -75 -538 -91 -611 -110 -714 -137
-737 -25 -20 -623 -19 -648 2 -15 13 -17 26 -12 105 7 116 54 440 177 1225 54
349 138 887 185 1195 161 1050 207 1324 227 1337 16 10 486 9 586 -1 95 -9
109 -22 93 -87 -22 -86 -8 -84 188 31 113 65 222 112 305 130 75 17 259 19
362 4z m2412 -5 c125 -26 279 -105 379 -196 55 -49 70 -48 83 5 22 84 32 107
51 117 25 14 644 9 658 -5 11 -12 -14 -204 -110 -825 -38 -250 -106 -693 -149
-983 -85 -564 -98 -632 -124 -672 l-16 -25 -314 0 c-278 0 -315 2 -327 16 -8
10 -15 48 -18 91 -2 51 -7 73 -15 70 -6 -3 -47 -30 -91 -62 -85 -60 -221 -131
-320 -165 -155 -54 -445 -49 -590 9 -238 96 -381 232 -500 475 -125 254 -154
563 -85 917 77 399 295 761 601 999 231 179 420 248 682 249 80 1 157 -5 205
-15z m-5073 -9 c209 -40 373 -183 439 -383 40 -120 49 -207 43 -407 -5 -196
-7 -209 -142 -1080 -101 -653 -104 -670 -118 -689 -19 -25 -116 -36 -328 -36
-263 0 -347 7 -360 32 -12 22 -3 89 111 823 100 648 103 673 104 835 1 129 0
138 -28 193 -48 99 -137 147 -269 147 -167 -1 -313 -101 -396 -272 -75 -155
-122 -382 -241 -1176 -39 -257 -75 -484 -81 -505 -19 -70 -28 -72 -339 -72
-151 1 -292 4 -312 8 -57 12 -60 27 -39 168 43 284 115 748 146 945 19 115 68
435 110 711 94 626 100 663 120 682 13 14 53 17 263 19 278 4 385 -3 407 -25
10 -9 15 -35 15 -73 0 -32 5 -62 10 -65 6 -3 48 21 95 55 105 76 222 135 317
160 94 24 357 27 473 5z m7312 -54 c162 -8 183 -14 183 -58 0 -63 -333 -2227
-366 -2381 -13 -63 -19 -75 -42 -83 -16 -6 -146 -9 -334 -7 -272 3 -309 5
-324 20 -16 15 -10 59 85 680 134 867 248 1592 267 1698 19 98 27 118 57 130
27 11 266 11 474 1z"/>
<path d="M4335 4117 c-80 -31 -138 -69 -202 -132 -59 -60 -154 -202 -173 -259
-23 -72 -27 -71 363 -74 188 -1 380 1 427 5 l84 8 7 31 c10 51 -9 153 -43 226
-36 79 -113 158 -185 190 -73 33 -200 35 -278 5z"/>
<path d="M9695 3989 c-22 -5 -78 -28 -125 -51 -71 -34 -100 -56 -175 -132
-125 -127 -200 -263 -246 -447 -30 -117 -24 -289 15 -402 129 -381 535 -459
843 -164 144 138 223 282 264 482 37 180 20 329 -54 467 -53 101 -127 177
-212 219 -59 29 -77 33 -168 35 -56 2 -120 -1 -142 -7z"/>
<path d="M12389 3977 c-94 -32 -169 -81 -256 -167 -93 -92 -162 -194 -203
-303 -51 -131 -63 -203 -57 -357 4 -116 8 -146 32 -210 98 -265 309 -377 575
-303 194 53 354 209 474 464 60 125 69 170 69 329 -1 118 -4 145 -27 216 -43
133 -142 261 -242 312 -94 47 -257 56 -365 19z"/>
</g>
</svg>
