<?xml version="1.0" standalone="no"?><!--
  - Project senpai
  -
  - Copyright 2023-2023 Alessandro 'kLeZ' Accardo
  -
  - Permission is hereby granted, free of charge, to any person obtaining a copy of this software and associated documentation files (the "Software"), to deal in the Software without restriction, including without limitation the rights to use, copy, modify, merge, publish, distribute, sublicense, and/or sell copies of the Software, and to permit persons to whom the Software is furnished to do so, subject to the following conditions:
  -
  - The above copyright notice and this permission notice shall be included in all copies or substantial portions of the Software.
  -
  - THE SOFTWARE IS PROVIDED "AS IS", WITHOUT WARRANTY OF ANY KIND, EXPRESS OR IMPLIED, INCLUDING BUT NOT LIMITED TO THE WARRANTIES OF MERCHANTABILITY, FITNESS FOR A PARTICULAR PURPOSE AND NONINFRINGEMENT. IN NO EVENT SHALL THE AUTHORS OR COPYRIGHT HOLDERS BE LIABLE FOR ANY CLAIM, DAMAGES OR OTHER LIABILITY, WHETHER IN AN ACTION OF CONTRACT, TORT OR OTHERWISE, ARISING FROM, OUT OF OR IN CONNECTION WITH THE SOFTWARE OR THE USE OR OTHER DEALINGS IN THE SOFTWARE.
  -->
<!DOCTYPE svg PUBLIC "-//W3C//DTD SVG 20010904//EN"
		"http://www.w3.org/TR/2001/REC-SVG-20010904/DTD/svg10.dtd">
<svg version="1.0" xmlns="http://www.w3.org/2000/svg" width="185.000000pt" height="232.000000pt" viewBox="0 0 185.000000 232.000000" preserveAspectRatio="xMidYMid meet">
	<metadata>
		Created by potrace 1.15, written by Peter Selinger 2001-2017
	</metadata>
	<g transform="translate(0.000000,232.000000) scale(0.100000,-0.100000)" fill="#000000" stroke="none">
		<path d="M455 1980 c-488 -367 -484 -363 -433 -417 28 -31 102 -69 186 -97
l63 -21 22 -66 c30 -87 80 -169 150 -241 l57 -60 -11 -42 c-8 -25 -15 -195
-19 -451 -6 -338 -10 -419 -24 -459 -9 -27 -16 -55 -16 -63 0 -26 28 -13 44
21 36 76 58 239 77 576 9 171 30 334 43 347 3 3 33 -7 68 -21 97 -38 153 -49
263 -49 117 0 199 19 299 69 46 23 73 31 79 25 17 -17 26 -99 27 -241 1 -238
19 -567 36 -647 17 -85 37 -131 60 -140 27 -10 28 6 6 75 -20 61 -22 90 -22
262 0 107 7 277 16 379 21 242 17 307 -19 355 l-28 37 46 51 c55 61 107 152
130 229 l18 56 71 23 c90 29 134 51 174 88 61 57 74 45 -422 417 -250 187
-462 341 -472 342 -11 1 -205 -138 -469 -337z m-18 -564 c274 -49 792 -44
1036 10 l28 6 -20 -51 c-23 -61 -66 -130 -118 -189 l-38 -42 -65 41 c-120 77
-136 81 -305 77 l-150 -3 -94 -44 c-51 -24 -99 -44 -106 -45 -6 -1 -25 -10
-41 -20 l-28 -19 -58 63 c-32 34 -74 94 -93 133 -30 59 -42 97 -32 97 1 0 39
-7 84 -14z m563 -236 c19 -6 57 -15 84 -20 27 -6 75 -22 105 -36 54 -24 55
-26 36 -41 -11 -8 -40 -24 -65 -35 -150 -65 -333 -63 -484 5 l-50 23 78 38
c43 20 104 42 136 47 33 5 69 13 82 19 31 12 37 12 78 0z" />
	</g>
</svg>
