<?xml version="1.0" standalone="no"?>
<!DOCTYPE svg PUBLIC "-//W3C//DTD SVG 20010904//EN"
 "http://www.w3.org/TR/2001/REC-SVG-20010904/DTD/svg10.dtd">
<svg version="1.0" xmlns="http://www.w3.org/2000/svg"
 width="512.000000pt" height="512.000000pt" viewBox="0 0 512.000000 512.000000"
 preserveAspectRatio="xMidYMid meet">
<metadata>
Created by potrace 1.11, written by Peter Selinger 2001-2013
</metadata>
<g transform="translate(0.000000,512.000000) scale(0.100000,-0.100000)"
fill="#000000" stroke="none">
<path d="M2501 4103 c-176 -178 -330 -414 -420 -645 l-26 -67 -75 49 c-99 63
-254 140 -360 178 -157 56 -197 67 -393 107 -11 2 -16 1 -13 -2 3 -4 1 -12 -5
-19 -6 -8 -13 -35 -16 -61 -2 -27 -8 -73 -13 -103 -9 -60 -6 -417 5 -490 13
-92 37 -187 68 -283 19 -54 31 -100 28 -102 -4 -2 -36 -6 -72 -9 -116 -11
-425 -105 -495 -151 -13 -8 -24 -23 -24 -33 0 -20 72 -156 126 -239 107 -164
278 -344 402 -423 39 -25 71 -48 71 -52 1 -3 -23 -20 -52 -37 -122 -70 -177
-144 -127 -171 11 -6 20 -9 20 -6 0 3 15 0 32 -5 18 -5 55 -12 82 -15 28 -3
53 -7 56 -9 6 -4 163 -18 203 -19 21 0 22 5 -8 -54 -31 -61 -40 -138 -26 -222
12 -73 33 -99 78 -94 77 8 150 17 163 19 8 1 40 6 70 10 76 10 275 52 332 71
l48 15 42 -44 c24 -24 68 -62 98 -84 74 -53 223 -133 249 -133 49 0 250 123
339 206 l56 54 71 -21 c86 -25 85 -24 215 -48 142 -26 163 -29 250 -37 123
-11 125 -11 138 24 33 87 32 193 -3 269 -14 30 -25 59 -25 63 0 4 17 7 38 8
55 2 149 12 212 22 30 5 73 12 95 16 58 8 88 30 79 57 -3 12 -13 28 -22 34 -8
7 -27 23 -41 35 -14 13 -50 39 -80 58 -47 29 -52 35 -37 45 160 97 329 263
447 437 23 35 47 66 53 70 6 4 8 8 3 8 -4 0 3 17 16 38 50 80 80 149 74 166
-4 9 -33 28 -64 42 -32 13 -67 29 -78 34 -71 32 -292 88 -375 96 -30 3 -60 6
-66 8 -7 3 1 40 22 103 36 107 60 216 74 333 9 75 6 412 -4 460 -2 14 -7 49
-10 79 -10 95 -20 97 -211 45 -71 -19 -139 -36 -150 -37 -11 -1 -22 -5 -25 -8
-3 -3 -46 -22 -95 -42 -100 -40 -278 -133 -339 -178 -22 -16 -43 -26 -46 -22
-4 5 -17 37 -30 72 -50 138 -171 342 -290 491 -69 86 -168 190 -181 190 -6 0
-32 -21 -58 -47z m201 -236 c309 -404 411 -833 297 -1257 -42 -154 -126 -337
-220 -478 -77 -116 -200 -261 -221 -262 -9 0 -38 26 -65 57 -26 32 -56 67 -66
78 -10 11 -50 67 -88 124 -134 200 -223 421 -258 646 -15 94 -5 379 16 435 3
8 7 28 10 44 10 60 77 235 126 330 63 121 151 251 248 367 l74 88 44 -47 c23
-26 70 -82 103 -125z m-1371 -252 c19 -3 48 -10 64 -15 17 -5 62 -19 100 -31
39 -11 84 -27 102 -35 17 -8 34 -14 38 -14 20 0 226 -106 304 -156 79 -52 89
-62 84 -82 -25 -100 -40 -240 -37 -352 2 -69 5 -136 7 -150 3 -14 8 -45 11
-70 36 -227 164 -509 333 -727 35 -45 63 -83 63 -86 0 -10 -101 5 -160 24 -98
32 -274 119 -380 190 -114 76 -296 254 -363 355 -158 241 -236 509 -239 825
-1 88 7 243 18 314 3 27 3 27 12 21 5 -3 24 -8 43 -11z m2515 -22 c29 -188 21
-491 -18 -638 -5 -22 -12 -51 -15 -65 -8 -46 -51 -164 -88 -245 -123 -266
-322 -467 -616 -624 -123 -65 -232 -108 -294 -116 -28 -3 -61 -8 -73 -11 -28
-6 -30 -9 53 100 131 175 226 361 285 566 27 93 32 116 47 230 16 122 7 314
-21 449 l-13 63 41 30 c105 76 277 163 430 217 90 32 268 81 274 76 2 -2 5
-16 8 -32z m-2495 -1055 c68 -135 227 -324 353 -421 20 -16 33 -33 30 -39 -4
-7 -2 -8 4 -4 7 4 40 -12 74 -36 142 -97 349 -192 518 -239 25 -7 49 -15 53
-19 6 -5 -75 -33 -138 -46 -5 -1 -46 -10 -90 -20 -84 -18 -347 -26 -435 -12
-178 27 -362 106 -509 219 -136 105 -288 289 -389 472 -29 52 -31 58 -15 63
10 4 32 12 48 19 68 30 283 87 365 97 102 13 108 12 131 -34z m2589 27 c8 -2
26 -6 40 -9 83 -15 221 -56 307 -91 34 -13 40 -20 33 -33 -142 -268 -335 -482
-543 -601 -32 -18 -62 -29 -69 -25 -7 4 -10 3 -5 -1 13 -14 -113 -62 -238 -91
-183 -43 -467 -24 -679 44 -64 20 -64 24 4 42 131 34 405 154 485 212 248 182
381 320 481 503 l37 67 66 -7 c36 -3 73 -8 81 -10z m-1340 -830 c70 -36 260
-94 360 -110 25 -4 54 -9 64 -11 21 -4 215 -18 231 -16 6 0 42 4 80 8 39 4 86
8 107 8 20 1 34 4 32 7 -2 4 13 10 34 14 20 3 77 20 125 37 76 26 92 29 115
19 35 -16 124 -73 120 -77 -3 -2 -27 -6 -128 -20 -14 -1 -74 -6 -135 -10 -60
-4 -120 -11 -132 -15 -33 -12 -29 -44 12 -92 20 -23 33 -47 30 -55 -2 -7 -1
-11 4 -8 23 14 46 -112 33 -179 -3 -19 -9 -24 -26 -20 -11 2 -43 7 -71 9 -60
6 -296 46 -305 51 -4 2 -21 7 -38 10 -18 3 -68 17 -111 30 -68 22 -83 24 -101
13 -11 -7 -20 -16 -20 -20 0 -33 -250 -219 -282 -210 -5 1 -8 -2 -8 -7 0 -45
-148 19 -274 119 -31 24 -96 93 -96 102 0 18 -39 28 -67 17 -52 -20 -294 -78
-351 -85 -32 -3 -66 -8 -77 -10 -11 -2 -49 -7 -85 -10 -36 -4 -68 -8 -71 -10
-22 -13 -25 111 -5 169 8 20 27 53 42 73 52 65 56 73 49 93 -7 23 -27 28 -165
37 -118 7 -124 8 -199 18 -63 10 -60 16 37 70 l63 35 52 -20 c278 -111 617
-112 941 -3 44 14 98 35 120 44 51 23 60 24 96 5z"/>
</g>
</svg>
